<svg xmlns="http://www.w3.org/2000/svg" xmlns:xlink="http://www.w3.org/1999/xlink" version="1.1" id="Layer_1" x="0px" y="0px" viewBox="0 0 129 45" style="enable-background:new 0 0 129 45;" xml:space="preserve">
  <style type="text/css">
    .st0 {
      fill: #544192;
      enable-background: new;
    }

    .st1 {
      fill:#544192;
    }
  </style>
  <path id="Logo-2" class="st0" d="M17.9,17.3c-1.1-0.8-2.4-1.3-3.9-1.4c-2.7-0.1-5,2-5.1,4.8c0,0.1,0,0.1,0,0.2c0,2.7,2.1,4.9,4.8,5  c0.1,0,0.3,0,0.4,0c1.3,0,2.6-0.5,3.7-1.4v6c-1.6,0.8-3.5,1.1-5.2,1.1C6.4,31.6,1.2,27.1,1.2,21c0-6.5,5.2-11,11.7-11  c1.7,0,3.4,0.4,4.9,1.2C17.9,11.2,17.9,17.3,17.9,17.3z M27.6,30.9h-7.4V1.1h7.4C27.6,1.1,27.6,30.9,27.6,30.9z M41.6,16.2  c2.4-0.2,4.6,1.7,4.8,4.2c0,0.1,0,0.3,0,0.4c0.1,2.4-1.8,4.5-4.3,4.6c-0.2,0-0.3,0-0.5,0c-2.4,0.2-4.6-1.6-4.8-4c0-0.2,0-0.3,0-0.5  c-0.1-2.4,1.9-4.5,4.4-4.6C41.3,16.2,41.4,16.2,41.6,16.2L41.6,16.2z M53.5,10.7h-7.4v1.9c-1.7-1.7-4.1-2.7-6.5-2.6  c-5.8,0-10.5,4.7-10.5,10.4c0,0.1,0,0.2,0,0.3c-0.1,5.8,4.5,10.7,10.3,10.8c0.1,0,0.2,0,0.2,0c2.4,0,5-0.9,6.3-3H46v2.2h7.4  L53.5,10.7L53.5,10.7z M63.8,30.9h-7.4V10.7h7.4V30.9z M64.2,4.9c-0.1,2.3-2,4.1-4.3,4c-2.1-0.1-4-1.8-4-4c0.1-2.3,2.1-4.1,4.4-3.9  C62.4,1.2,64.1,2.9,64.2,4.9z M74,14L74,14c1.5-2.3,4.1-3.8,6.8-3.6h1.4v6.9c-1-0.5-2-0.7-3.2-0.7c-4.1,0-5.2,2.6-5.2,6.1v8.1h-7.4  V10.7h7.4L74,14L74,14z M90.2,17.9c0.7-2.3,3.3-3.8,5.6-3c1.4,0.4,2.5,1.5,3,3H90.2L90.2,17.9z M105.8,21.3  c0-6.9-4.2-11.2-11.5-11.2c-6.8,0-11.6,4.1-11.6,10.8c0,7,5.2,10.8,12.1,10.8c4.8,0,9.5-2.1,10.7-6.9h-7.1c-0.7,1.2-2.1,1.9-3.6,1.8  c-3.1,0-4.7-1.5-4.7-4.5h15.7V21.3L105.8,21.3z M116,2.4l-6.5,11.9h-4.8l4.4-11.9L116,2.4L116,2.4z M123.9,15.9  c-1.2-0.6-2.6-0.9-4-1c-0.8,0-2.3,0.4-2.3,1.4c0,1.4,2.3,1.5,3.4,1.7c3.5,0.6,6.1,2.2,6.1,6c0,5.3-5,7.5-9.9,7.5  c-3,0-5.9-0.8-8.4-2.3l2.6-5c1.7,1.2,3.8,1.8,5.9,2c0.9,0,2.3-0.4,2.3-1.5c0-1.6-2.3-1.6-4.7-2.2c-2.3-0.6-4.7-1.7-4.7-5.3  c0-5,4.7-7.1,9.3-7.1c2.3,0,4.7,0.4,6.9,1.3L123.9,15.9z M127.4,12.3c0.3,0,0.5,0.1,0.7,0.3c0.4,0.3,0.4,0.9,0,1.3l0,0  c-0.4,0.4-1,0.4-1.4,0c-0.2-0.2-0.3-0.4-0.3-0.7c0-0.2,0.1-0.5,0.3-0.7C126.9,12.3,127.1,12.3,127.4,12.3L127.4,12.3z M128.5,13.2  c0-0.3-0.1-0.6-0.3-0.8c-0.4-0.4-1.1-0.4-1.6,0c-0.2,0.2-0.3,0.5-0.3,0.8c0,0.3,0.1,0.6,0.3,0.8c0.4,0.4,1.1,0.4,1.6,0  C128.4,13.8,128.5,13.5,128.5,13.2L128.5,13.2z M127.7,13c0,0.1,0,0.2-0.1,0.2s-0.1,0-0.2,0h-0.2v-0.5h0.2c0.1,0,0.2,0,0.3,0  C127.7,12.8,127.7,12.9,127.7,13L127.7,13z M126.9,12.6v1.2h0.2v-0.5h0.2c0.1,0,0.2,0,0.2,0c0.1,0.1,0.1,0.2,0.1,0.3v0.1l0,0l0,0  l0,0h0.2l0,0c0,0,0,0,0-0.1v-0.1v-0.1c0-0.1,0-0.1-0.1-0.2s-0.1-0.1-0.2-0.1c0.1,0,0.1,0,0.2-0.1c0.1,0,0.1-0.1,0.1-0.2  c0-0.1-0.1-0.3-0.2-0.3s-0.2-0.1-0.3,0L126.9,12.6L126.9,12.6z M1,0.5"/>
  <g>
    <path class="st1" d="M3.6,34l2.6,6.7L9,33.5l2.6,7.2l2.7-6.7h1.6l-4.5,10.7L9,37.6l-2.6,7.1L2,34H3.6z"/>
    <path class="st1" d="M22.1,41.3h-4.6c0,0.5,0.2,0.9,0.5,1.2c0.3,0.3,0.7,0.4,1.1,0.4c0.4,0,0.7-0.1,0.9-0.3   c0.2-0.2,0.5-0.5,0.8-0.9l1.2,0.7c-0.2,0.3-0.4,0.6-0.6,0.8c-0.2,0.2-0.4,0.4-0.7,0.6c-0.2,0.1-0.5,0.3-0.8,0.3   c-0.3,0.1-0.6,0.1-0.9,0.1c-0.9,0-1.7-0.3-2.2-0.9c-0.6-0.6-0.8-1.4-0.8-2.4s0.3-1.8,0.8-2.4c0.6-0.6,1.3-0.9,2.2-0.9   s1.6,0.3,2.2,0.9c0.5,0.6,0.8,1.4,0.8,2.4V41.3z M20.5,40.1c-0.2-0.8-0.7-1.2-1.5-1.2c-0.2,0-0.3,0-0.5,0.1s-0.3,0.1-0.4,0.2   c-0.1,0.1-0.2,0.2-0.3,0.4c-0.1,0.1-0.2,0.3-0.2,0.5H20.5z"/>
    <path class="st1" d="M27.7,44.1l2.1-10.8l3.5,7.8l3.6-7.8l1.9,10.8h-1.5l-1-6.1l-3,6.5l-3-6.4l-1.1,6.1h-1.5V44.1z"/>
    <path class="st1" d="M45.3,37.8h1.4v6.3h-1.4v-0.7c-0.6,0.6-1.2,0.8-1.9,0.8c-0.9,0-1.6-0.3-2.1-0.9c-0.6-0.6-0.8-1.4-0.8-2.4   c0-0.9,0.3-1.7,0.8-2.3c0.6-0.6,1.3-0.9,2.1-0.9c0.7,0,1.4,0.3,2,0.9v-0.7H45.3z M41.7,41c0,0.6,0.2,1.1,0.5,1.5   c0.3,0.4,0.7,0.6,1.2,0.6c0.5,0,1-0.2,1.3-0.6c0.3-0.4,0.5-0.9,0.5-1.4c0-0.6-0.2-1.1-0.5-1.4c-0.3-0.4-0.8-0.6-1.3-0.6   c-0.5,0-0.9,0.2-1.2,0.6C41.9,39.9,41.7,40.3,41.7,41z"/>
    <path class="st1" d="M50,33.1v6.7l2-2H54l-2.7,2.6l3,3.7h-1.9l-2.1-2.6l-0.2,0.2v2.4h-1.4v-11H50z"/>
    <path class="st1" d="M60.7,41.3h-4.6c0,0.5,0.2,0.9,0.5,1.2c0.3,0.3,0.7,0.4,1.1,0.4c0.4,0,0.7-0.1,0.9-0.3   c0.2-0.2,0.5-0.5,0.8-0.9l1.2,0.7c-0.2,0.3-0.4,0.6-0.6,0.8c-0.2,0.2-0.4,0.4-0.7,0.6c-0.2,0.1-0.5,0.3-0.8,0.3   c-0.3,0.1-0.6,0.1-0.9,0.1c-0.9,0-1.7-0.3-2.2-0.9c-0.6-0.6-0.8-1.4-0.8-2.4s0.3-1.8,0.8-2.4c0.6-0.6,1.3-0.9,2.2-0.9   c0.9,0,1.6,0.3,2.2,0.9c0.5,0.6,0.8,1.4,0.8,2.4V41.3z M59.2,40.1c-0.2-0.8-0.7-1.2-1.5-1.2c-0.2,0-0.3,0-0.5,0.1s-0.2,0.1-0.3,0.2   c-0.1,0.1-0.2,0.2-0.3,0.4c-0.1,0.1-0.2,0.3-0.2,0.5H59.2z"/>
    <path class="st1" d="M66.4,44.1l2.1-10.8l3.5,7.8l3.6-7.8l1.9,10.8H76L75,38l-3,6.5l-3-6.4L68,44.2h-1.5V44.1z"/>
    <path class="st1" d="M85.1,41.3h-4.6c0,0.5,0.2,0.9,0.5,1.2c0.3,0.3,0.7,0.4,1.1,0.4c0.4,0,0.7-0.1,0.9-0.3   c0.2-0.2,0.5-0.5,0.8-0.9l1.2,0.7c-0.2,0.3-0.4,0.6-0.6,0.8c-0.2,0.2-0.4,0.4-0.7,0.6c-0.2,0.1-0.5,0.3-0.8,0.3   c-0.3,0.1-0.6,0.1-0.9,0.1c-0.9,0-1.7-0.3-2.2-0.9c-0.6-0.6-0.8-1.4-0.8-2.4s0.3-1.8,0.8-2.4c0.5-0.6,1.3-0.9,2.2-0.9   c0.9,0,1.6,0.3,2.2,0.9c0.5,0.6,0.8,1.4,0.8,2.4V41.3z M83.5,40.1c-0.2-0.8-0.7-1.2-1.5-1.2c-0.2,0-0.3,0-0.5,0.1s-0.3,0.1-0.4,0.2   c-0.1,0.1-0.2,0.2-0.3,0.4c-0.1,0.1-0.2,0.3-0.2,0.5H83.5z"/>
    <path class="st1" d="M86.7,37.8h1.4v0.6c0.3-0.3,0.5-0.5,0.7-0.6c0.2-0.1,0.5-0.2,0.8-0.2c0.7,0,1.3,0.3,1.7,0.9   c0.5-0.6,1.1-0.9,1.8-0.9c1.4,0,2.1,0.9,2.1,2.6v4h-1.4v-3.6c0-0.6-0.1-1-0.2-1.3c-0.2-0.3-0.4-0.4-0.7-0.4c-0.4,0-0.7,0.1-0.9,0.4   c-0.2,0.3-0.3,0.8-0.3,1.4V44h-1.4v-3.5c0-1.1-0.3-1.7-1-1.7c-0.4,0-0.7,0.2-0.9,0.5c-0.2,0.3-0.3,0.8-0.3,1.4V44h-1.4   C86.7,44,86.7,37.8,86.7,37.8z"/>
    <path class="st1" d="M96.9,41c0-0.9,0.3-1.7,1-2.3c0.6-0.6,1.4-0.9,2.4-0.9c0.9,0,1.7,0.3,2.4,1c0.6,0.6,1,1.4,1,2.3   s-0.3,1.7-1,2.3c-0.6,0.6-1.4,0.9-2.4,0.9c-0.9,0-1.7-0.3-2.3-1C97.3,42.7,96.9,41.9,96.9,41z M98.4,41c0,0.6,0.2,1.1,0.5,1.5   s0.8,0.6,1.4,0.6s1-0.2,1.3-0.5c0.3-0.4,0.5-0.8,0.5-1.5c0-0.6-0.2-1.1-0.5-1.5c-0.3-0.4-0.8-0.6-1.3-0.6c-0.6,0-1,0.2-1.3,0.6   C98.6,39.8,98.4,40.3,98.4,41z"/>
    <path class="st1" d="M105.2,37.8h1.4v0.6c0.3-0.3,0.5-0.5,0.7-0.6s0.5-0.2,0.7-0.2c0.4,0,0.8,0.1,1.2,0.4l-0.7,1.3   c-0.3-0.2-0.5-0.3-0.8-0.3c-0.8,0-1.2,0.6-1.2,1.8v3.3h-1.4v-6.3H105.2z"/>
    <path class="st1" d="M110.2,35.2c0-0.3,0.1-0.5,0.3-0.7c0.2-0.2,0.4-0.3,0.7-0.3c0.3,0,0.5,0.1,0.7,0.3c0.2,0.2,0.3,0.4,0.3,0.7   s-0.1,0.5-0.3,0.7c-0.2,0.2-0.4,0.3-0.7,0.3s-0.5-0.1-0.7-0.3C110.3,35.7,110.2,35.5,110.2,35.2z M111.8,37.8v6.3h-1.4v-6.3H111.8z   "/>
    <path class="st1" d="M119.4,41.3H115c0,0.5,0.2,0.9,0.5,1.2c0.3,0.3,0.7,0.4,1.1,0.4c0.4,0,0.7-0.1,0.9-0.3   c0.2-0.2,0.5-0.5,0.8-0.9l1.2,0.7c-0.2,0.3-0.4,0.6-0.6,0.8c-0.2,0.2-0.4,0.4-0.7,0.6c-0.2,0.1-0.5,0.3-0.8,0.3   c-0.3,0.1-0.6,0.1-0.9,0.1c-0.9,0-1.7-0.3-2.2-0.9c-0.6-0.6-0.8-1.4-0.8-2.4s0.3-1.8,0.8-2.4c0.5-0.6,1.3-0.9,2.2-0.9   c0.9,0,1.6,0.3,2.2,0.9c0.5,0.6,0.8,1.4,0.8,2.4L119.4,41.3z M118,40.1c-0.2-0.8-0.7-1.2-1.5-1.2c-0.2,0-0.3,0-0.5,0.1   c-0.2,0.1-0.3,0.1-0.4,0.2c-0.1,0.1-0.2,0.2-0.3,0.4c-0.1,0.1-0.2,0.3-0.2,0.5H118z"/>
    <path class="st1" d="M124.7,38.9l-1.2,0.6c-0.2-0.4-0.4-0.6-0.7-0.6c-0.1,0-0.2,0-0.3,0.1c-0.1,0.1-0.1,0.2-0.1,0.3   c0,0.2,0.3,0.5,0.8,0.7c0.8,0.3,1.3,0.6,1.5,0.9c0.3,0.3,0.4,0.7,0.4,1.1c0,0.6-0.2,1.1-0.7,1.5c-0.4,0.4-1,0.6-1.6,0.6   c-1,0-1.8-0.5-2.2-1.5l1.2-0.6c0.2,0.3,0.3,0.5,0.4,0.6c0.2,0.2,0.4,0.2,0.6,0.2c0.5,0,0.7-0.2,0.7-0.7c0-0.3-0.2-0.5-0.6-0.7   c-0.1-0.1-0.3-0.1-0.4-0.2c-0.1-0.1-0.3-0.1-0.4-0.2c-0.4-0.2-0.7-0.4-0.9-0.6c-0.2-0.3-0.3-0.6-0.3-1c0-0.5,0.2-1,0.6-1.3   c0.4-0.4,0.8-0.5,1.4-0.5C123.7,37.6,124.3,38,124.7,38.9z"/>
    <path class="st1" d="M125.1,36.9v1.3h-0.2v-1.3h-0.3v-0.2h0.9v0.2H125.1z"/>
    <path class="st1" d="M125.7,38.2l0.3-1.6l0.5,1.2l0.5-1.2l0.3,1.6h-0.2l-0.1-0.9l-0.4,1l-0.4-1l-0.2,0.9H125.7z"/>
  </g>
</svg>