<svg xmlns="http://www.w3.org/2000/svg" viewBox="0 0 824.04 192.62">
  <defs>
    <style>.cls-1,.cls-2{fill:#e91d1f;fill-rule:evenodd}.cls-2{fill:#5f5d5d}</style>
  </defs>
  <path class="cls-1" d="M300.36 129.84l-13.76-19.29a19 19 0 0 0 4.91-2.08 15.33 15.33 0 0 0 3.83-3.27 15.09 15.09 0 0 0 2.51-4.44 18.16 18.16 0 0 0-.4-12.45 13.88 13.88 0 0 0-3.75-5.1 17.22 17.22 0 0 0-6-3.2 26 26 0 0 0-7.9-1.13h-22.68v51H266v-17.8h11.24l12.56 17.76zm-10.7-34.33a7.7 7.7 0 0 1-2.85 6.29 11.73 11.73 0 0 1-7.67 2.34H266V87h13.06c3.37 0 6 .72 7.82 2.16a7.56 7.56 0 0 1 2.78 6.39zm84.45-16.63H336.4v51h38.07v-8.08h-29.19v-13.65h25.55v-8.09h-25.55V87h28.83v-8.12zm83.79 25.41a25.62 25.62 0 0 0-2-10.05 23.72 23.72 0 0 0-5.57-8.08 25.81 25.81 0 0 0-8.59-5.35 30.08 30.08 0 0 0-11-1.93h-19v51h19a29.47 29.47 0 0 0 11-2 26.37 26.37 0 0 0 8.59-5.38 23.68 23.68 0 0 0 5.57-8.12 25.84 25.84 0 0 0 2-10.08zm-9.39.14a18.53 18.53 0 0 1-1.27 7 16.18 16.18 0 0 1-3.58 5.48 15.91 15.91 0 0 1-5.58 3.59 20.1 20.1 0 0 1-7.31 1.28H420.7V87h10.07a19.69 19.69 0 0 1 7.31 1.31 16.24 16.24 0 0 1 5.58 3.67 16.45 16.45 0 0 1 3.58 5.52 18.51 18.51 0 0 1 1.27 6.93z"/>
  <path class="cls-2" d="M512.12 78.88h-21.65v51h22.6a28.39 28.39 0 0 0 7.56-1 18 18 0 0 0 5.85-2.73 12 12 0 0 0 3.73-4.4 12.93 12.93 0 0 0 1.32-5.9 11.81 11.81 0 0 0-.88-4.66 11 11 0 0 0-2.33-3.49 13.93 13.93 0 0 0-3.44-2.51 22.21 22.21 0 0 0-4.25-1.71 17.8 17.8 0 0 0 2.94-1.64 12.6 12.6 0 0 0 2.58-2.44 12.17 12.17 0 0 0 1.85-3.34 12.69 12.69 0 0 0 .7-4.44 11.76 11.76 0 0 0-1.17-5.28 11.08 11.08 0 0 0-3.34-4 16.56 16.56 0 0 0-5.19-2.55 23.72 23.72 0 0 0-6.83-.91zm-.87 22.71h-15V84h15.47q5.43 0 8.35 2.26a7.41 7.41 0 0 1 2.89 6.14 7.9 7.9 0 0 1-3.26 6.87 14.07 14.07 0 0 1-8.42 2.34zm2 23.15h-17.03v-18h16q6.68 0 10.09 2.3a7.44 7.44 0 0 1 3.41 6.54 7.89 7.89 0 0 1-3.33 6.8c-2.24 1.61-5.28 2.41-9.15 2.41zm98.54 5.1L596.17 109a20.39 20.39 0 0 0 5.54-1.75 16 16 0 0 0 4.4-3.09 13 13 0 0 0 2.89-4.34 15.06 15.06 0 0 0 1-5.71 14.51 14.51 0 0 0-1.32-6.24 13.68 13.68 0 0 0-3.71-4.8 17.07 17.07 0 0 0-5.79-3.1 24.6 24.6 0 0 0-7.6-1.09h-21.91v51h5.76V110H590l14.77 19.8zm-7.58-35.49a9.77 9.77 0 0 1-1 4.45 9.29 9.29 0 0 1-2.74 3.33 12.89 12.89 0 0 1-4.16 2.08 17.88 17.88 0 0 1-5.26.73h-15.62V84.19h15.76c4.13 0 7.35.89 9.63 2.67a8.92 8.92 0 0 1 3.43 7.49zm69-15.83h-5.39l-23.22 51.32h5.89c10.74-23.93 7.42-16.6 19.95-44.55 13 29.11 8.65 19.39 19.8 44.55h6.19L673.2 78.52zm60.42.36v51h5.76v-51zm84.82 40.84l-32.12-40.84H781v51h5.6V88.05l32.91 41.79H824v-51h-5.6z"/>
  <path class="cls-1" d="M175.72 2l.25 9.36.22 8.07a2 2 0 0 1-3.19 1.73l-3.63-2.53c-23.1 33.64-45.83 66.37-68.73 88.16-22 20.92-44.09 31.94-66.81 24.85-12.89-4-21.44-13.28-27.78-25.29A50.3 50.3 0 0 1 0 82.67c0-20 12.27-37.95 32.1-50.77C51.18 19.58 77.42 12 106.3 12q6.28 0 12.55.49 3.23.25 6.48.64a5.74 5.74 0 0 1 5 6.59v.06a5.73 5.73 0 0 1-6.33 4.8q-2.91-.34-6-.58-5.67-.45-11.69-.45c-26.64 0-50.66 6.92-68 18.1C21.79 52.3 11.55 66.83 11.55 82.67a38.81 38.81 0 0 0 4.7 18.33c5.47 10.36 12.94 18.29 24.69 20.49 17 3.18 34.24-6.34 51.75-23 22.06-21 44.45-53.24 67.22-86.42L156 9.26a2 2 0 0 1-.85-2 2 2 0 0 1 1.37-1.65l7.65-2.56 8.89-3a2 2 0 0 1 1.82.26 2 2 0 0 1 .84 1.69zm12.66 35.6a71.6 71.6 0 0 1 16.52 18.47 51 51 0 0 1 7.7 26.6c0 15.26-3.42 29.47-12.93 41.27-9.38 11.62-15.07 18.45-38.49 23.28a4.18 4.18 0 0 0-2.59 1.68 4.29 4.29 0 0 0-.76 3l7.43 25.39a13.39 13.39 0 0 1-14.43 15.09l-19.17.2a16.91 16.91 0 0 1-8.24-2.93c-4.93-3.4-22.42-27.73-27.36-33.93a5.33 5.33 0 0 0-1.78-2.13 5.43 5.43 0 0 0-2.62-.93c-4.61-.41-9-1-13.11-1.73-2.34-.42-4.65-.88-6.91-1.4a5.71 5.71 0 0 1-4.26-7.09v-.08a5.72 5.72 0 0 1 6.8-4.09q3.14.72 6.33 1.29 6.15 1.1 12.16 1.64a16.51 16.51 0 0 1 13.75 9.56c3.57 4.47 21.44 27.51 24.19 29.4a5.25 5.25 0 0 0 2.63.89l18.52-.18a1.88 1.88 0 0 0 .86-.09 1.74 1.74 0 0 0 .69-.47 1.76 1.76 0 0 0 .44-.7 2 2 0 0 0 .07-.88l-7.43-25.39a15.74 15.74 0 0 1 12.47-17.45c20.51-4.23 24.05-9.6 31.81-19.21 7.62-9.45 10.36-21.23 10.36-34A39.62 39.62 0 0 0 195 62a60 60 0 0 0-13.86-15.46 5.73 5.73 0 0 1-1.1-7.75 5.73 5.73 0 0 1 8.3-1.19z"/>
</svg>